# xmcd
#
# Track frame offsets:
#	150
#	13165
#	28755
#	41585
#	55527
#	65525
#	80880
#	93992
#	105530
#	116960
#
# Disc length: 1763 seconds
#
# Revision: 1
# Processed by: cddbd v1.4PL0 Copyright (c) Steve Scherf et al.
# Submitted via: audiograbber 1.82.01
#
DISCID=8306e10a
DTITLE=McKameys, The - Still Have A Song
DYEAR=1997
DGENRE=Southern Gospel
TTITLE0=Because Of Him
TTITLE1=This Valley Is For Me
TTITLE2=Right On Time
TTITLE3=Longing For Home
TTITLE4=Jesus Is Calling
TTITLE5=I've Still Got A Song
TTITLE6=Sweeter Each Day
TTITLE7=No Other Fountain
TTITLE8=Finish Line, The
TTITLE9=When He Comes
EXTD=
EXTT0=
EXTT1=
EXTT2=
EXTT3=
EXTT4=
EXTT5=
EXTT6=
EXTT7=
EXTT8=
EXTT9=
PLAYORDER=
